<svg fill="#ffffff" version="1.1" id="Capa_1" xmlns="http://www.w3.org/2000/svg" xmlns:xlink="http://www.w3.org/1999/xlink" width="800px" height="800px" viewBox="0 0 221.659 221.659" xml:space="preserve">
<g>
	<g id="_x31_64_65_">
		<path d="M180.665,69.328c-0.452-0.021-0.874,0.021-1.32,0.01c0.518-2.288,0.858-4.613,0.99-6.947    c-1.163-21.498-16.463-36.785-37.948-37.942c-12.604-0.678-23.109,5.756-29.853,15.168c-6.741-8.872-17.217-14.482-29.879-15.168    c-21.439-1.155-36.866,18.199-37.932,37.942c-0.125,2.537,0.041,4.977,0.437,7.338c-1.343-0.193-2.709-0.322-4.103-0.401    c-23.176-1.249-39.852,19.67-41.002,41c-1.178,21.807,17.266,37.854,37.222,40.626v0.381h40.799l-0.005-31.59H58.547l27.426-31.88    l24.849,31.88h-19.53l0.005,31.447H78.075v0.143v45.356h13.228v-45.356h47.981v14.046H119.75l24.852,31.879l27.426-31.879h-19.52    v-14.046h36.013v-0.473c18.997-3.224,32.123-21.698,33.139-40.54C220.42,87.106,203.892,70.574,180.665,69.328z M152.513,151.192    h-13.229V87.542h13.229V151.192z" fill="#ffffff"/>
	</g>
</g>
</svg>